<svg xmlns="http://www.w3.org/2000/svg" viewBox="0 0 1000 1000"><rect width="1000" height="1000" style="fill:#0c0c0c"/><path d="M553,351H303l-10,98H643L613,750H511l20-199H181l30-301H563ZM657,551H809l10-102H667Z" style="fill:#7289da"/><path d="M749.39,283a70.19,70.19,0,0,0-5.39-7.62,58.51,58.51,0,0,0-6.39-6.81l5.81-24.81a4.85,4.85,0,0,0-2.87-5.44l-35.46-13.64a4.84,4.84,0,0,0-5.92,2l-12.44,22.27a70.31,70.31,0,0,0-18.33,2.84l-18.59-17.33a4.78,4.78,0,0,0-6.25-.17L614,258.15a4.68,4.68,0,0,0-1.07,6.08l13,21.82a71.44,71.44,0,0,0-6.63,17.32l-24.39,7.48a4.74,4.74,0,0,0-3.18,5.37l5.95,37.47a4.49,4.49,0,0,0,4.72,3.95l25.47-.46a55.15,55.15,0,0,0,11.55,14.62l-5.81,24.81a4.85,4.85,0,0,0,2.87,5.44l35.46,13.64a4.84,4.84,0,0,0,5.92-2l12.44-22.27a70,70,0,0,0,18.34-2.84l18.58,17.33a4.87,4.87,0,0,0,6.25.18l29.59-23.9a4.62,4.62,0,0,0,1.07-6.09l-13-21.81A68.12,68.12,0,0,0,757.73,337l24.39-7.48a4.72,4.72,0,0,0,3.18-5.37l-5.87-37.53a4.57,4.57,0,0,0-4.72-4Zm-38.47,64.94a35.66,35.66,0,1,1,5.34-50.15A35.77,35.77,0,0,1,710.92,347.92Z" style="fill:#7289da"/></svg>